# This file uses centimeters as units for non-parametric coordinates.

mtllib net.mtl
v -0.003399 -0.915538 0.050000
v -0.006466 -0.917101 0.050000
v -0.008899 -0.919534 0.050000
v -0.010462 -0.922601 0.050000
v -0.011000 -0.926000 0.050000
v -0.010462 -0.929399 0.050000
v -0.008899 -0.932466 0.050000
v -0.006466 -0.934899 0.050000
v -0.003399 -0.936462 0.050000
v -0.000000 -0.937000 0.050000
v 0.003399 -0.936462 0.050000
v 0.006466 -0.934899 0.050000
v 0.008899 -0.932466 0.050000
v 0.010462 -0.929399 0.050000
v 0.011000 -0.926000 0.050000
v 0.010462 -0.922601 0.050000
v 0.008899 -0.919534 0.050000
v 0.006466 -0.917101 0.050000
v 0.003399 -0.915538 0.050000
v -0.000000 -0.915000 0.050000
v -0.000000 -0.926000 0.050000
v -0.000000 -0.926000 0.203000
v -0.002549 -0.918154 0.203000
v -0.003399 -0.915538 0.200250
v -0.004849 -0.919325 0.203000
v -0.006466 -0.917101 0.200250
v -0.006675 -0.921151 0.203000
v -0.008899 -0.919534 0.200250
v -0.007846 -0.923451 0.203000
v -0.010462 -0.922601 0.200250
v -0.008250 -0.926000 0.203000
v -0.011000 -0.926000 0.200250
v -0.007846 -0.928550 0.203000
v -0.010462 -0.929399 0.200250
v -0.006675 -0.930849 0.203000
v -0.008899 -0.932466 0.200250
v -0.004849 -0.932675 0.203000
v -0.006466 -0.934899 0.200250
v -0.002549 -0.933847 0.203000
v -0.003399 -0.936462 0.200250
v -0.000000 -0.934250 0.203000
v -0.000000 -0.937000 0.200250
v 0.002549 -0.933847 0.203000
v 0.003399 -0.936462 0.200250
v 0.004849 -0.932675 0.203000
v 0.006466 -0.934899 0.200250
v 0.006675 -0.930849 0.203000
v 0.008899 -0.932466 0.200250
v 0.007846 -0.928550 0.203000
v 0.010462 -0.929399 0.200250
v 0.008250 -0.926000 0.203000
v 0.011000 -0.926000 0.200250
v 0.007846 -0.923451 0.203000
v 0.010462 -0.922601 0.200250
v 0.006675 -0.921151 0.203000
v 0.008899 -0.919534 0.200250
v 0.004849 -0.919325 0.203000
v 0.006466 -0.917101 0.200250
v 0.002549 -0.918154 0.203000
v 0.003399 -0.915538 0.200250
v -0.000000 -0.917750 0.203000
v -0.000000 -0.915000 0.200250
v -0.003399 0.915538 0.050000
v -0.006466 0.917101 0.050000
v -0.008899 0.919534 0.050000
v -0.010462 0.922601 0.050000
v -0.011000 0.926000 0.050000
v -0.010462 0.929399 0.050000
v -0.008899 0.932466 0.050000
v -0.006466 0.934899 0.050000
v -0.003399 0.936462 0.050000
v 0.000000 0.937000 0.050000
v 0.003399 0.936462 0.050000
v 0.006466 0.934899 0.050000
v 0.008899 0.932466 0.050000
v 0.010462 0.929399 0.050000
v 0.011000 0.926000 0.050000
v 0.010462 0.922601 0.050000
v 0.008899 0.919534 0.050000
v 0.006466 0.917101 0.050000
v 0.003399 0.915538 0.050000
v 0.000000 0.915000 0.050000
v 0.000000 0.926000 0.050000
v 0.000000 0.926000 0.203000
v -0.002549 0.918154 0.203000
v -0.003399 0.915538 0.200250
v -0.004849 0.919325 0.203000
v -0.006466 0.917101 0.200250
v -0.006675 0.921151 0.203000
v -0.008899 0.919534 0.200250
v -0.007846 0.923451 0.203000
v -0.010462 0.922601 0.200250
v -0.008250 0.926000 0.203000
v -0.011000 0.926000 0.200250
v -0.007846 0.928550 0.203000
v -0.010462 0.929399 0.200250
v -0.006675 0.930849 0.203000
v -0.008899 0.932466 0.200250
v -0.004849 0.932675 0.203000
v -0.006466 0.934899 0.200250
v -0.002549 0.933847 0.203000
v -0.003399 0.936462 0.200250
v 0.000000 0.934250 0.203000
v 0.000000 0.937000 0.200250
v 0.002549 0.933847 0.203000
v 0.003399 0.936462 0.200250
v 0.004849 0.932675 0.203000
v 0.006466 0.934899 0.200250
v 0.006675 0.930849 0.203000
v 0.008899 0.932466 0.200250
v 0.007846 0.928550 0.203000
v 0.010462 0.929399 0.200250
v 0.008250 0.926000 0.203000
v 0.011000 0.926000 0.200250
v 0.007846 0.923451 0.203000
v 0.010462 0.922601 0.200250
v 0.006675 0.921151 0.203000
v 0.008899 0.919534 0.200250
v 0.004849 0.919325 0.203000
v 0.006466 0.917101 0.200250
v 0.002549 0.918154 0.203000
v 0.003399 0.915538 0.200250
v 0.000000 0.917750 0.203000
v 0.000000 0.915000 0.200250
vt 0.648603 0.107966
vt 0.626409 0.064408
vt 0.591842 0.029841
vt 0.548284 0.007647
vt 0.500000 -0.000000
vt 0.451716 0.007647
vt 0.408159 0.029841
vt 0.373591 0.064409
vt 0.351397 0.107966
vt 0.343750 0.156250
vt 0.351397 0.204534
vt 0.373591 0.248091
vt 0.408159 0.282659
vt 0.451716 0.304853
vt 0.500000 0.312500
vt 0.548284 0.304853
vt 0.591841 0.282659
vt 0.626409 0.248091
vt 0.648603 0.204534
vt 0.656250 0.156250
vt 0.500000 0.150000
vt 0.612500 0.312500
vt 0.625000 0.312500
vt 0.611456 0.878402
vt 0.375000 0.312500
vt 0.375000 0.681980
vt 0.594810 0.911071
vt 0.387500 0.312500
vt 0.568883 0.936998
vt 0.400000 0.312500
vt 0.536214 0.953644
vt 0.412500 0.312500
vt 0.500000 0.959379
vt 0.425000 0.312500
vt 0.463786 0.953643
vt 0.437500 0.312500
vt 0.431117 0.936998
vt 0.450000 0.312500
vt 0.405190 0.911071
vt 0.462500 0.312500
vt 0.388544 0.878402
vt 0.475000 0.312500
vt 0.382809 0.842188
vt 0.487500 0.312500
vt 0.388544 0.805973
vt 0.500000 0.312500
vt 0.405190 0.773304
vt 0.512500 0.312500
vt 0.431117 0.747378
vt 0.525000 0.312500
vt 0.463786 0.730732
vt 0.537500 0.312500
vt 0.500000 0.724996
vt 0.550000 0.312500
vt 0.536214 0.730732
vt 0.562500 0.312500
vt 0.568883 0.747378
vt 0.575000 0.312500
vt 0.594810 0.773304
vt 0.587500 0.312500
vt 0.611456 0.805974
vt 0.600000 0.312500
vt 0.617191 0.842188
vt 0.500000 0.837500
vt 0.625000 0.681979
vt 0.623437 0.688440
vt 0.614062 0.688440
vt 0.376562 0.688440
vt 0.387500 0.681979
vt 0.385938 0.688440
vt 0.389062 0.688440
vt 0.400000 0.681979
vt 0.398438 0.688440
vt 0.401562 0.688440
vt 0.412500 0.681979
vt 0.410938 0.688440
vt 0.414062 0.688440
vt 0.425000 0.681979
vt 0.423438 0.688440
vt 0.426562 0.688440
vt 0.437500 0.681979
vt 0.435938 0.688440
vt 0.439062 0.688440
vt 0.450000 0.681979
vt 0.448438 0.688440
vt 0.451562 0.688440
vt 0.462500 0.681979
vt 0.460938 0.688440
vt 0.464062 0.688440
vt 0.475000 0.681979
vt 0.473438 0.688440
vt 0.476562 0.688440
vt 0.487500 0.681979
vt 0.485938 0.688440
vt 0.489062 0.688440
vt 0.500000 0.681979
vt 0.498438 0.688440
vt 0.501562 0.688440
vt 0.512500 0.681979
vt 0.510938 0.688440
vt 0.514062 0.688440
vt 0.525000 0.681979
vt 0.523438 0.688440
vt 0.526562 0.688440
vt 0.537500 0.681979
vt 0.535938 0.688440
vt 0.539062 0.688440
vt 0.550000 0.681979
vt 0.548437 0.688440
vt 0.551562 0.688440
vt 0.562500 0.681979
vt 0.560937 0.688440
vt 0.564062 0.688440
vt 0.575000 0.681979
vt 0.573437 0.688440
vt 0.576562 0.688440
vt 0.587500 0.681979
vt 0.585938 0.688440
vt 0.589062 0.688440
vt 0.600000 0.681979
vt 0.598437 0.688440
vt 0.601562 0.688440
vt 0.612500 0.681979
vt 0.610937 0.688440
vt 0.375000 0.312500
vt 0.387500 0.312500
vt 0.387500 0.681979
vt 0.375000 0.681980
vt 0.400000 0.312500
vt 0.400000 0.681979
vt 0.412500 0.312500
vt 0.412500 0.681979
vt 0.425000 0.312500
vt 0.425000 0.681979
vt 0.437500 0.312500
vt 0.437500 0.681979
vt 0.450000 0.312500
vt 0.450000 0.681979
vt 0.462500 0.312500
vt 0.462500 0.681979
vt 0.475000 0.312500
vt 0.475000 0.681979
vt 0.487500 0.312500
vt 0.487500 0.681979
vt 0.500000 0.312500
vt 0.500000 0.681979
vt 0.512500 0.312500
vt 0.512500 0.681979
vt 0.525000 0.312500
vt 0.525000 0.681979
vt 0.537500 0.312500
vt 0.537500 0.681979
vt 0.550000 0.312500
vt 0.550000 0.681979
vt 0.562500 0.312500
vt 0.562500 0.681979
vt 0.575000 0.312500
vt 0.575000 0.681979
vt 0.587500 0.312500
vt 0.587500 0.681979
vt 0.600000 0.312500
vt 0.600000 0.681979
vt 0.612500 0.312500
vt 0.612500 0.681979
vt 0.625000 0.312500
vt 0.625000 0.681979
vt 0.626409 0.064408
vt 0.648603 0.107966
vt 0.500000 0.150000
vt 0.591842 0.029841
vt 0.548284 0.007647
vt 0.500000 -0.000000
vt 0.451716 0.007647
vt 0.408159 0.029841
vt 0.373591 0.064409
vt 0.351397 0.107966
vt 0.343750 0.156250
vt 0.351397 0.204534
vt 0.373591 0.248091
vt 0.408159 0.282659
vt 0.451716 0.304853
vt 0.500000 0.312500
vt 0.548284 0.304853
vt 0.591841 0.282659
vt 0.626409 0.248091
vt 0.648603 0.204534
vt 0.656250 0.156250
vt 0.611456 0.878402
vt 0.594810 0.911071
vt 0.500000 0.837500
vt 0.568883 0.936998
vt 0.536214 0.953644
vt 0.500000 0.959379
vt 0.463786 0.953643
vt 0.431117 0.936998
vt 0.405190 0.911071
vt 0.388544 0.878402
vt 0.382809 0.842188
vt 0.388544 0.805973
vt 0.405190 0.773304
vt 0.431117 0.747378
vt 0.463786 0.730732
vt 0.500000 0.724996
vt 0.536214 0.730732
vt 0.568883 0.747378
vt 0.594810 0.773304
vt 0.611456 0.805974
vt 0.617191 0.842188
vt 0.623437 0.688440
vt 0.614062 0.688440
vt 0.376562 0.688440
vt 0.385938 0.688440
vt 0.389062 0.688440
vt 0.398438 0.688440
vt 0.401562 0.688440
vt 0.410938 0.688440
vt 0.414062 0.688440
vt 0.423438 0.688440
vt 0.426562 0.688440
vt 0.435938 0.688440
vt 0.439062 0.688440
vt 0.448438 0.688440
vt 0.451562 0.688440
vt 0.460938 0.688440
vt 0.464062 0.688440
vt 0.473438 0.688440
vt 0.476562 0.688440
vt 0.485938 0.688440
vt 0.489062 0.688440
vt 0.498438 0.688440
vt 0.501562 0.688440
vt 0.510938 0.688440
vt 0.514062 0.688440
vt 0.523438 0.688440
vt 0.526562 0.688440
vt 0.535938 0.688440
vt 0.539062 0.688440
vt 0.548437 0.688440
vt 0.551562 0.688440
vt 0.560937 0.688440
vt 0.564062 0.688440
vt 0.573437 0.688440
vt 0.576562 0.688440
vt 0.585938 0.688440
vt 0.589062 0.688440
vt 0.598437 0.688440
vt 0.601562 0.688440
vt 0.610937 0.688440
vn -0.309011 0.951059 0.000000
vn -0.587787 0.809016 0.000000
vn -0.587787 0.809016 0.000000
vn -0.309011 0.951059 0.000000
vn -0.809019 0.587783 0.000000
vn -0.809019 0.587783 0.000000
vn -0.951056 0.309019 0.000000
vn -0.951056 0.309019 0.000000
vn -1.000000 -0.000000 0.000000
vn -1.000000 -0.000000 0.000000
vn -0.951056 -0.309019 0.000000
vn -0.951056 -0.309019 0.000000
vn -0.809019 -0.587783 0.000000
vn -0.809019 -0.587783 0.000000
vn -0.587787 -0.809016 0.000000
vn -0.587787 -0.809016 0.000000
vn -0.309011 -0.951059 0.000000
vn -0.309011 -0.951059 0.000000
vn 0.000000 -1.000000 0.000000
vn 0.000000 -1.000000 0.000000
vn 0.309011 -0.951059 0.000000
vn 0.309011 -0.951059 0.000000
vn 0.587787 -0.809016 0.000000
vn 0.587787 -0.809016 0.000000
vn 0.809019 -0.587783 0.000000
vn 0.809019 -0.587783 0.000000
vn 0.951056 -0.309019 0.000000
vn 0.951056 -0.309019 0.000000
vn 1.000000 0.000000 0.000000
vn 1.000000 0.000000 0.000000
vn 0.951056 0.309019 0.000000
vn 0.951056 0.309019 0.000000
vn 0.809019 0.587783 0.000000
vn 0.809019 0.587783 0.000000
vn 0.587787 0.809016 0.000000
vn 0.587787 0.809016 0.000000
vn 0.309011 0.951059 0.000000
vn 0.309011 0.951059 0.000000
vn 0.000000 1.000000 0.000000
vn 0.000000 1.000000 0.000000
vn 0.000000 0.000000 -1.000000
vn 0.000001 0.000000 -1.000000
vn 0.000000 0.000000 -1.000000
vn -0.000001 0.000000 -1.000000
vn 0.000000 0.000000 -1.000000
vn 0.000000 0.000000 -1.000000
vn 0.000000 0.000000 -1.000000
vn -0.000001 0.000000 -1.000000
vn 0.000001 0.000000 -1.000000
vn 0.000002 0.000000 -1.000000
vn 0.000000 0.000000 -1.000000
vn -0.000001 0.000000 -1.000000
vn -0.000000 0.000000 -1.000000
vn 0.000001 0.000000 -1.000000
vn 0.000000 0.000000 -1.000000
vn 0.000000 0.000000 -1.000000
vn 0.000000 0.000000 -1.000000
vn 0.000001 0.000000 -1.000000
vn -0.000001 0.000000 -1.000000
vn -0.000002 0.000000 -1.000000
vn 0.000000 0.000000 -1.000000
vn -0.000006 0.000000 1.000000
vn -0.000000 0.000000 1.000000
vn -0.000000 0.000000 1.000000
vn -0.000000 0.000000 1.000000
vn -0.000006 0.000000 1.000000
vn 0.000000 0.000000 1.000000
vn -0.000003 0.000000 1.000000
vn -0.000003 0.000000 1.000000
vn -0.000006 0.000000 1.000000
vn -0.000006 0.000000 1.000000
vn 0.000000 0.000000 1.000000
vn 0.000006 0.000000 1.000000
vn 0.000000 0.000000 1.000000
vn 0.000000 0.000000 1.000000
vn 0.000006 0.000000 1.000000
vn 0.000000 0.000000 1.000000
vn 0.000003 0.000000 1.000000
vn 0.000003 0.000000 1.000000
vn 0.000006 0.000000 1.000000
vn 0.000006 0.000000 1.000000
vn 0.000000 0.000000 1.000000
vn -0.218499 0.672494 0.707113
vn -0.218499 0.672494 0.707113
vn 0.000000 0.707096 0.707117
vn 0.000000 0.707096 0.707117
vn -0.415625 0.572057 0.707112
vn -0.415625 0.572057 0.707112
vn -0.572064 0.415625 0.707106
vn -0.572064 0.415625 0.707106
vn -0.672498 0.218510 0.707107
vn -0.672498 0.218510 0.707107
vn -0.707106 -0.000001 0.707107
vn -0.707106 -0.000001 0.707107
vn -0.672499 -0.218509 0.707106
vn -0.672499 -0.218509 0.707106
vn -0.572064 -0.415628 0.707104
vn -0.572064 -0.415628 0.707104
vn -0.415627 -0.572061 0.707108
vn -0.415627 -0.572061 0.707108
vn -0.218498 -0.672489 0.707119
vn -0.218498 -0.672489 0.707119
vn 0.000000 -0.707091 0.707123
vn 0.000000 -0.707091 0.707123
vn 0.218497 -0.672485 0.707123
vn 0.218497 -0.672485 0.707123
vn 0.415626 -0.572056 0.707112
vn 0.415626 -0.572056 0.707112
vn 0.572065 -0.415627 0.707104
vn 0.572065 -0.415627 0.707104
vn 0.672495 -0.218508 0.707110
vn 0.672495 -0.218508 0.707110
vn 0.707102 0.000000 0.707111
vn 0.707102 0.000000 0.707111
vn 0.672498 0.218509 0.707107
vn 0.672498 0.218509 0.707107
vn 0.572063 0.415625 0.707107
vn 0.572063 0.415625 0.707107
vn 0.415623 0.572057 0.707113
vn 0.415623 0.572057 0.707113
vn 0.218498 0.672489 0.707119
vn 0.218498 0.672489 0.707119
vn -0.309011 -0.951059 0.000000
vn -0.309011 -0.951059 0.000000
vn -0.587787 -0.809016 0.000000
vn -0.587787 -0.809016 0.000000
vn -0.809019 -0.587783 0.000000
vn -0.809019 -0.587783 0.000000
vn -0.951056 -0.309019 0.000000
vn -0.951056 -0.309019 0.000000
vn -1.000000 0.000000 0.000000
vn -1.000000 0.000000 0.000000
vn -0.951056 0.309019 0.000000
vn -0.951056 0.309019 0.000000
vn -0.809019 0.587783 0.000000
vn -0.809019 0.587783 0.000000
vn -0.587787 0.809016 0.000000
vn -0.587787 0.809016 0.000000
vn -0.309011 0.951059 0.000000
vn -0.309011 0.951059 0.000000
vn 0.000000 1.000000 0.000000
vn 0.000000 1.000000 0.000000
vn 0.309011 0.951059 0.000000
vn 0.309011 0.951059 0.000000
vn 0.587787 0.809016 0.000000
vn 0.587787 0.809016 0.000000
vn 0.809019 0.587783 0.000000
vn 0.809019 0.587783 0.000000
vn 0.951056 0.309019 0.000000
vn 0.951056 0.309019 0.000000
vn 1.000000 0.000000 0.000000
vn 1.000000 0.000000 0.000000
vn 0.951056 -0.309019 0.000000
vn 0.951056 -0.309019 0.000000
vn 0.809019 -0.587783 0.000000
vn 0.809019 -0.587783 0.000000
vn 0.587787 -0.809016 0.000000
vn 0.587787 -0.809016 0.000000
vn 0.309011 -0.951059 0.000000
vn 0.309011 -0.951059 0.000000
vn 0.000000 -1.000000 0.000000
vn 0.000000 -1.000000 0.000000
vn 0.000000 0.000000 -1.000000
vn 0.000000 0.000000 -1.000000
vn 0.000000 0.000000 -1.000000
vn -0.000001 0.000000 -1.000000
vn 0.000000 0.000000 -1.000000
vn 0.000000 0.000000 -1.000000
vn 0.000000 0.000000 -1.000000
vn -0.000001 0.000000 -1.000000
vn 0.000000 0.000000 -1.000000
vn 0.000000 0.000000 -1.000000
vn 0.000000 0.000000 -1.000000
vn -0.000000 0.000000 -1.000000
vn -0.000000 0.000000 -1.000000
vn 0.000001 0.000000 -1.000000
vn 0.000000 0.000000 -1.000000
vn 0.000000 0.000000 -1.000000
vn 0.000000 0.000000 -1.000000
vn 0.000001 0.000000 -1.000000
vn -0.000000 0.000000 -1.000000
vn -0.000000 0.000000 -1.000000
vn 0.000000 0.000000 -1.000000
vn -0.000002 0.000000 1.000000
vn -0.000000 0.000000 1.000000
vn -0.000001 0.000000 1.000000
vn -0.000001 0.000000 1.000000
vn -0.000004 0.000000 1.000000
vn 0.000000 0.000000 1.000000
vn -0.000004 0.000000 1.000000
vn -0.000001 0.000000 1.000000
vn -0.000001 0.000000 1.000000
vn -0.000002 0.000000 1.000000
vn 0.000000 0.000000 1.000000
vn 0.000002 0.000000 1.000000
vn 0.000001 0.000000 1.000000
vn 0.000001 0.000000 1.000000
vn 0.000004 0.000000 1.000000
vn 0.000000 0.000000 1.000000
vn 0.000004 0.000000 1.000000
vn 0.000001 0.000000 1.000000
vn 0.000001 0.000000 1.000000
vn 0.000002 0.000000 1.000000
vn -0.000000 0.000000 1.000000
vn -0.218502 -0.672499 0.707108
vn -0.000001 -0.707100 0.707114
vn -0.000001 -0.707100 0.707114
vn -0.218502 -0.672499 0.707108
vn -0.415627 -0.572061 0.707107
vn -0.415627 -0.572061 0.707107
vn -0.572065 -0.415627 0.707104
vn -0.572065 -0.415627 0.707104
vn -0.672495 -0.218509 0.707109
vn -0.672495 -0.218509 0.707109
vn -0.707105 0.000001 0.707109
vn -0.707105 0.000001 0.707109
vn -0.672495 0.218508 0.707110
vn -0.672495 0.218508 0.707110
vn -0.572061 0.415627 0.707107
vn -0.572061 0.415627 0.707107
vn -0.415628 0.572060 0.707107
vn -0.415628 0.572060 0.707107
vn -0.218501 0.672491 0.707116
vn -0.218501 0.672491 0.707116
vn -0.000002 0.707099 0.707115
vn -0.000002 0.707099 0.707115
vn 0.218497 0.672492 0.707116
vn 0.218497 0.672492 0.707116
vn 0.415625 0.572056 0.707112
vn 0.415625 0.572056 0.707112
vn 0.572061 0.415624 0.707109
vn 0.572061 0.415624 0.707109
vn 0.672491 0.218507 0.707114
vn 0.672491 0.218507 0.707114
vn 0.707100 -0.000000 0.707114
vn 0.707100 -0.000000 0.707114
vn 0.672495 -0.218509 0.707110
vn 0.672495 -0.218509 0.707110
vn 0.572062 -0.415625 0.707107
vn 0.572062 -0.415625 0.707107
vn 0.415626 -0.572059 0.707110
vn 0.415626 -0.572059 0.707110
vn 0.218502 -0.672492 0.707114
vn 0.218502 -0.672492 0.707114
s 1
usemtl lambert3SG
f 1/25/1 2/28/2 26/69/3 24/26/4
f 2/28/2 3/30/5 28/72/6 26/69/3
f 3/30/5 4/32/7 30/75/8 28/72/6
f 4/32/7 5/34/9 32/78/10 30/75/8
f 5/34/9 6/36/11 34/81/12 32/78/10
f 6/36/11 7/38/13 36/84/14 34/81/12
f 7/38/13 8/40/15 38/87/16 36/84/14
f 8/40/15 9/42/17 40/90/18 38/87/16
f 9/42/17 10/44/19 42/93/20 40/90/18
f 10/44/19 11/46/21 44/96/22 42/93/20
f 11/46/21 12/48/23 46/99/24 44/96/22
f 12/48/23 13/50/25 48/102/26 46/99/24
f 13/50/25 14/52/27 50/105/28 48/102/26
f 14/52/27 15/54/29 52/108/30 50/105/28
f 15/54/29 16/56/31 54/111/32 52/108/30
f 16/56/31 17/58/33 56/114/34 54/111/32
f 17/58/33 18/60/35 58/117/36 56/114/34
f 18/60/35 19/62/37 60/120/38 58/117/36
f 19/62/37 20/22/39 62/123/40 60/120/38
f 20/22/39 1/23/1 24/65/4 62/123/40
s 2
f 2/2/41 1/1/42 21/21/43
f 3/3/44 2/2/41 21/21/43
f 4/4/45 3/3/44 21/21/43
f 5/5/46 4/4/45 21/21/43
f 6/6/47 5/5/46 21/21/43
f 7/7/48 6/6/47 21/21/43
f 8/8/49 7/7/48 21/21/43
f 9/9/50 8/8/49 21/21/43
f 10/10/51 9/9/50 21/21/43
f 11/11/52 10/10/51 21/21/43
f 12/12/53 11/11/52 21/21/43
f 13/13/54 12/12/53 21/21/43
f 14/14/55 13/13/54 21/21/43
f 15/15/56 14/14/55 21/21/43
f 16/16/57 15/15/56 21/21/43
f 17/17/58 16/16/57 21/21/43
f 18/18/59 17/17/58 21/21/43
f 19/19/60 18/18/59 21/21/43
f 20/20/61 19/19/60 21/21/43
f 1/1/42 20/20/61 21/21/43
s 3
f 23/24/62 25/27/63 22/64/64
f 25/27/63 27/29/65 22/64/64
f 27/29/65 29/31/66 22/64/64
f 29/31/66 31/33/67 22/64/64
f 31/33/67 33/35/68 22/64/64
f 33/35/68 35/37/69 22/64/64
f 35/37/69 37/39/70 22/64/64
f 37/39/70 39/41/71 22/64/64
f 39/41/71 41/43/72 22/64/64
f 41/43/72 43/45/73 22/64/64
f 43/45/73 45/47/74 22/64/64
f 45/47/74 47/49/75 22/64/64
f 47/49/75 49/51/76 22/64/64
f 49/51/76 51/53/77 22/64/64
f 51/53/77 53/55/78 22/64/64
f 53/55/78 55/57/79 22/64/64
f 55/57/79 57/59/80 22/64/64
f 57/59/80 59/61/81 22/64/64
f 59/61/81 61/63/82 22/64/64
f 61/63/82 23/24/62 22/64/64
s 4
f 24/65/83 23/66/84 61/67/85 62/123/86
f 23/68/84 24/26/83 26/69/87 25/70/88
f 25/71/88 26/69/87 28/72/89 27/73/90
f 27/74/90 28/72/89 30/75/91 29/76/92
f 29/77/92 30/75/91 32/78/93 31/79/94
f 31/80/94 32/78/93 34/81/95 33/82/96
f 33/83/96 34/81/95 36/84/97 35/85/98
f 35/86/98 36/84/97 38/87/99 37/88/100
f 37/89/100 38/87/99 40/90/101 39/91/102
f 39/92/102 40/90/101 42/93/103 41/94/104
f 41/95/104 42/93/103 44/96/105 43/97/106
f 43/98/106 44/96/105 46/99/107 45/100/108
f 45/101/108 46/99/107 48/102/109 47/103/110
f 47/104/110 48/102/109 50/105/111 49/106/112
f 49/107/112 50/105/111 52/108/113 51/109/114
f 51/110/114 52/108/113 54/111/115 53/112/116
f 53/113/116 54/111/115 56/114/117 55/115/118
f 55/116/118 56/114/117 58/117/119 57/118/120
f 57/119/120 58/117/119 60/120/121 59/121/122
f 59/122/122 60/120/121 62/123/86 61/124/85
s 5
f 63/125/123 86/128/124 88/127/125 64/126/126
f 64/126/126 88/127/125 90/130/127 65/129/128
f 65/129/128 90/130/127 92/132/129 66/131/130
f 66/131/130 92/132/129 94/134/131 67/133/132
f 67/133/132 94/134/131 96/136/133 68/135/134
f 68/135/134 96/136/133 98/138/135 69/137/136
f 69/137/136 98/138/135 100/140/137 70/139/138
f 70/139/138 100/140/137 102/142/139 71/141/140
f 71/141/140 102/142/139 104/144/141 72/143/142
f 72/143/142 104/144/141 106/146/143 73/145/144
f 73/145/144 106/146/143 108/148/145 74/147/146
f 74/147/146 108/148/145 110/150/147 75/149/148
f 75/149/148 110/150/147 112/152/149 76/151/150
f 76/151/150 112/152/149 114/154/151 77/153/152
f 77/153/152 114/154/151 116/156/153 78/155/154
f 78/155/154 116/156/153 118/158/155 79/157/156
f 79/157/156 118/158/155 120/160/157 80/159/158
f 80/159/158 120/160/157 122/162/159 81/161/160
f 81/161/160 122/162/159 124/164/161 82/163/162
f 82/163/162 124/164/161 86/166/124 63/165/123
s 6
f 64/167/163 83/169/164 63/168/165
f 65/170/166 83/169/164 64/167/163
f 66/171/167 83/169/164 65/170/166
f 67/172/168 83/169/164 66/171/167
f 68/173/169 83/169/164 67/172/168
f 69/174/170 83/169/164 68/173/169
f 70/175/171 83/169/164 69/174/170
f 71/176/172 83/169/164 70/175/171
f 72/177/173 83/169/164 71/176/172
f 73/178/174 83/169/164 72/177/173
f 74/179/175 83/169/164 73/178/174
f 75/180/176 83/169/164 74/179/175
f 76/181/177 83/169/164 75/180/176
f 77/182/178 83/169/164 76/181/177
f 78/183/179 83/169/164 77/182/178
f 79/184/180 83/169/164 78/183/179
f 80/185/181 83/169/164 79/184/180
f 81/186/182 83/169/164 80/185/181
f 82/187/183 83/169/164 81/186/182
f 63/168/165 83/169/164 82/187/183
s 7
f 85/188/184 84/190/185 87/189/186
f 87/189/186 84/190/185 89/191/187
f 89/191/187 84/190/185 91/192/188
f 91/192/188 84/190/185 93/193/189
f 93/193/189 84/190/185 95/194/190
f 95/194/190 84/190/185 97/195/191
f 97/195/191 84/190/185 99/196/192
f 99/196/192 84/190/185 101/197/193
f 101/197/193 84/190/185 103/198/194
f 103/198/194 84/190/185 105/199/195
f 105/199/195 84/190/185 107/200/196
f 107/200/196 84/190/185 109/201/197
f 109/201/197 84/190/185 111/202/198
f 111/202/198 84/190/185 113/203/199
f 113/203/199 84/190/185 115/204/200
f 115/204/200 84/190/185 117/205/201
f 117/205/201 84/190/185 119/206/202
f 119/206/202 84/190/185 121/207/203
f 121/207/203 84/190/185 123/208/204
f 123/208/204 84/190/185 85/188/184
s 8
f 86/166/205 124/164/206 123/210/207 85/209/208
f 85/211/208 87/212/209 88/127/210 86/128/205
f 87/213/209 89/214/211 90/130/212 88/127/210
f 89/215/211 91/216/213 92/132/214 90/130/212
f 91/217/213 93/218/215 94/134/216 92/132/214
f 93/219/215 95/220/217 96/136/218 94/134/216
f 95/221/217 97/222/219 98/138/220 96/136/218
f 97/223/219 99/224/221 100/140/222 98/138/220
f 99/225/221 101/226/223 102/142/224 100/140/222
f 101/227/223 103/228/225 104/144/226 102/142/224
f 103/229/225 105/230/227 106/146/228 104/144/226
f 105/231/227 107/232/229 108/148/230 106/146/228
f 107/233/229 109/234/231 110/150/232 108/148/230
f 109/235/231 111/236/233 112/152/234 110/150/232
f 111/237/233 113/238/235 114/154/236 112/152/234
f 113/239/235 115/240/237 116/156/238 114/154/236
f 115/241/237 117/242/239 118/158/240 116/156/238
f 117/243/239 119/244/241 120/160/242 118/158/240
f 119/245/241 121/246/243 122/162/244 120/160/242
f 121/247/243 123/248/207 124/164/206 122/162/244
v -0.000000 -0.915000 0.052500
v 0.000000 0.915000 0.052500
v -0.000000 -0.915000 0.200000
v 0.000000 0.915000 0.200000
v 0.000000 -0.000000 0.052500
v -0.000000 0.000000 0.200000
vt -2.242066 1.000000
vt -2.242066 0.000000
vt 3.281813 1.000000
vt 3.281813 0.000000
vt 3.281813 0.000000
vt 3.281813 1.000000
vt -2.242066 1.000000
vt -2.242066 0.000000
vn 1.000000 -0.000000 0.000000
vn 1.000000 -0.000000 0.000000
vn 1.000000 -0.000000 0.000000
vn 1.000000 -0.000000 0.000000
vn 1.000000 -0.000000 0.000000
vn 1.000000 -0.000000 0.000000
vn 1.000000 -0.000000 0.000000
vn 1.000000 -0.000000 0.000000
s off
usemtl lambert2SG
f 130/251/245 129/252/246 126/250/247 128/249/248
f 129/253/249 130/254/250 127/255/251 125/256/252
