# This file uses centimeters as units for non-parametric coordinates.

mtllib table_shadow.mtl
v 1.365133 0.712670 -0.050000
v 1.361876 0.723406 -0.050000
v 1.356588 0.733299 -0.050000
v 1.349471 0.741971 -0.050000
v 1.340799 0.749088 -0.050000
v 1.330906 0.754376 -0.050000
v 1.320170 0.757632 -0.050000
v 0.024821 0.958789 0.000000
v 1.312759 0.758747 -0.050000
v 1.366244 0.705262 -0.050000
v 0.114506 0.759765 0.000000
v 0.104421 0.762824 0.000000
v 0.095126 0.767793 0.000000
v 0.086979 0.774479 0.000000
v 0.080293 0.782626 0.000000
v 0.075325 0.791921 0.000000
v 0.072265 0.802006 0.000000
v 0.071250 0.812311 0.000000
v 0.071250 0.912359 0.000000
v 0.070344 0.921562 0.000000
v 0.067713 0.930234 0.000000
v 0.063442 0.938226 0.000000
v 0.057693 0.945231 0.000000
v 0.050687 0.950980 0.000000
v 0.042695 0.955251 0.000000
v 0.034023 0.957882 0.000000
v -1.365133 0.712670 -0.050000
v -1.361876 0.723406 -0.050000
v -1.356588 0.733299 -0.050000
v -1.349471 0.741971 -0.050000
v -1.340799 0.749088 -0.050000
v -1.330906 0.754376 -0.050000
v -1.320170 0.757632 -0.050000
v -0.024821 0.958789 0.000000
v -0.124811 0.758750 0.000000
v -1.312759 0.758747 -0.050000
v -1.366244 0.705262 -0.050000
v -0.114506 0.759765 0.000000
v -0.104421 0.762824 0.000000
v -0.095126 0.767793 0.000000
v -0.086979 0.774479 0.000000
v -0.080293 0.782626 0.000000
v -0.075325 0.791921 0.000000
v -0.072265 0.802006 0.000000
v -0.071250 0.812311 0.000000
v -0.071250 0.912359 0.000000
v -0.070344 0.921562 0.000000
v -0.067713 0.930234 0.000000
v -0.063442 0.938226 0.000000
v -0.057693 0.945231 0.000000
v -0.050687 0.950980 0.000000
v -0.042695 0.955251 0.000000
v -0.034023 0.957882 0.000000
v 1.365133 -0.712670 -0.050000
v 1.361876 -0.723406 -0.050000
v 1.356588 -0.733299 -0.050000
v 1.349471 -0.741971 -0.050000
v 1.340799 -0.749088 -0.050000
v 1.330906 -0.754376 -0.050000
v 1.320170 -0.757632 -0.050000
v 0.024821 -0.958789 0.000000
v 0.124811 -0.758750 0.000000
v 1.312759 -0.758747 -0.050000
v 1.366244 -0.705262 -0.050000
v 0.114506 -0.759765 0.000000
v 0.104421 -0.762824 0.000000
v 0.095126 -0.767793 0.000000
v 0.086979 -0.774479 0.000000
v 0.080293 -0.782626 0.000000
v 0.075325 -0.791921 0.000000
v 0.072265 -0.802006 0.000000
v 0.071250 -0.812311 0.000000
v 0.071250 -0.912359 0.000000
v 0.070344 -0.921562 0.000000
v 0.067713 -0.930234 0.000000
v 0.063442 -0.938226 0.000000
v 0.057693 -0.945231 0.000000
v 0.050687 -0.950980 0.000000
v 0.042695 -0.955251 0.000000
v 0.034023 -0.957882 0.000000
v -1.365133 -0.712670 -0.050000
v -1.361876 -0.723406 -0.050000
v -1.356588 -0.733299 -0.050000
v -1.349471 -0.741971 -0.050000
v -1.340799 -0.749088 -0.050000
v -1.330906 -0.754376 -0.050000
v -1.320170 -0.757632 -0.050000
v -0.024821 -0.958789 0.000000
v -1.312759 -0.758747 -0.050000
v -1.366244 -0.705262 -0.050000
v -0.114506 -0.759765 0.000000
v -0.104421 -0.762824 0.000000
v -0.095126 -0.767793 0.000000
v -0.086979 -0.774479 0.000000
v -0.080293 -0.782626 0.000000
v -0.075325 -0.791921 0.000000
v -0.072265 -0.802006 0.000000
v -0.071250 -0.812311 0.000000
v -0.071250 -0.912359 0.000000
v -0.070344 -0.921562 0.000000
v -0.067713 -0.930234 0.000000
v -0.063442 -0.938226 0.000000
v -0.057693 -0.945231 0.000000
v -0.050687 -0.950980 0.000000
v -0.042695 -0.955251 0.000000
v -0.034023 -0.957882 0.000000
v 0.124811 0.758750 0.000000
v -0.124811 -0.758750 0.000000
vt 0.992711 0.974773
vt 0.991779 0.968136
vt 0.989075 0.961882
vt 0.984686 0.956118
vt 0.978778 0.951066
vt 0.971578 0.946920
vt 0.963365 0.943839
vt 0.954453 0.941941
vt 0.944996 0.941288
vt 0.842175 0.941288
vt 0.831585 0.940556
vt 0.821220 0.938349
vt 0.811668 0.934766
vt 0.803296 0.929944
vt 0.796424 0.924069
vt 0.791319 0.917365
vt 0.788174 0.910091
vt 0.732161 0.007331
vt 0.739775 0.008132
vt 0.750808 0.010481
vt 0.760975 0.014295
vt 0.769887 0.019427
vt 0.777201 0.025682
vt 0.782636 0.032817
vt 0.785983 0.040559
vt 0.787128 0.045904
vt 0.992711 0.974773
vt 0.991779 0.968136
vt 0.989075 0.961882
vt 0.984686 0.956118
vt 0.978778 0.951066
vt 0.971578 0.946920
vt 0.963365 0.943839
vt 0.954453 0.941941
vt 0.944996 0.941288
vt 0.842175 0.941288
vt 0.831585 0.940556
vt 0.821220 0.938349
vt 0.811668 0.934766
vt 0.803296 0.929944
vt 0.796424 0.924069
vt 0.791319 0.917365
vt 0.788174 0.910091
vt 0.787131 0.902660
vt 0.732161 0.007331
vt 0.739775 0.008132
vt 0.750808 0.010481
vt 0.760975 0.014295
vt 0.769887 0.019427
vt 0.777201 0.025682
vt 0.782636 0.032817
vt 0.785983 0.040559
vt 0.787128 0.045904
vt 0.992711 0.974773
vt 0.991779 0.968136
vt 0.989075 0.961882
vt 0.984686 0.956118
vt 0.978778 0.951066
vt 0.971578 0.946920
vt 0.963365 0.943839
vt 0.954453 0.941941
vt 0.944996 0.941288
vt 0.842175 0.941288
vt 0.831585 0.940556
vt 0.821220 0.938349
vt 0.811668 0.934766
vt 0.803296 0.929944
vt 0.796424 0.924069
vt 0.791319 0.917365
vt 0.788174 0.910091
vt 0.787131 0.902660
vt 0.732161 0.007331
vt 0.739775 0.008132
vt 0.750808 0.010481
vt 0.760975 0.014295
vt 0.769887 0.019427
vt 0.777201 0.025682
vt 0.782636 0.032817
vt 0.785983 0.040559
vt 0.787128 0.045904
vt 0.992711 0.974773
vt 0.991779 0.968136
vt 0.989075 0.961882
vt 0.984686 0.956118
vt 0.978778 0.951066
vt 0.971578 0.946920
vt 0.963365 0.943839
vt 0.954453 0.941941
vt 0.944996 0.941288
vt 0.842175 0.941288
vt 0.831585 0.940556
vt 0.821220 0.938349
vt 0.811668 0.934766
vt 0.803296 0.929944
vt 0.796424 0.924069
vt 0.791319 0.917365
vt 0.788174 0.910091
vt 0.732161 0.007331
vt 0.739775 0.008132
vt 0.750808 0.010481
vt 0.760975 0.014295
vt 0.769887 0.019427
vt 0.777201 0.025682
vt 0.782636 0.032817
vt 0.785983 0.040559
vt 0.787128 0.045904
vt 0.787131 0.902660
vt 0.787131 0.902660
vn 0.000000 0.000000 -1.000000
vn 0.000000 0.000000 -1.000000
vn 0.000000 0.000000 -1.000000
vn 0.000000 0.000000 -1.000000
vn 0.000000 0.000000 -1.000000
vn 0.000000 0.000000 -1.000000
vn 0.000000 0.000000 -1.000000
vn 0.000000 0.000000 -1.000000
vn 0.000000 0.000000 -1.000000
vn 0.000000 0.000000 -1.000000
vn 0.000000 0.000000 -1.000000
vn 0.000000 0.000000 -1.000000
vn 0.000000 0.000000 -1.000000
vn 0.000000 0.000000 -1.000000
vn 0.000000 0.000000 -1.000000
vn 0.000000 0.000000 -1.000000
vn 0.000000 0.000000 -1.000000
vn 0.000000 0.000000 -1.000000
vn 0.000000 0.000000 -1.000000
vn 0.000000 0.000000 -1.000000
vn 0.000000 0.000000 -1.000000
vn 0.000000 0.000000 -1.000000
vn 0.000000 0.000000 -1.000000
vn 0.000000 0.000000 -1.000000
vn 0.000000 0.000000 -1.000000
vn 0.000000 0.000000 -1.000000
vn 0.000000 0.000000 -1.000000
vn 0.000000 0.000000 -1.000000
vn 0.000000 0.000000 -1.000000
vn 0.000000 0.000000 -1.000000
vn 0.000000 0.000000 -1.000000
vn 0.000000 0.000000 -1.000000
vn 0.000000 0.000000 -1.000000
vn 0.000000 0.000000 -1.000000
vn 0.000000 0.000000 -1.000000
vn 0.000000 0.000000 -1.000000
vn 0.000000 0.000000 -1.000000
vn 0.000000 0.000000 -1.000000
vn 0.000000 0.000000 -1.000000
vn 0.000000 0.000000 -1.000000
vn 0.000000 0.000000 -1.000000
vn 0.000000 0.000000 -1.000000
vn 0.000000 0.000000 -1.000000
vn 0.000000 0.000000 -1.000000
vn 0.000000 0.000000 -1.000000
vn 0.000000 0.000000 -1.000000
vn 0.000000 0.000000 -1.000000
vn 0.000000 0.000000 -1.000000
vn 0.000000 0.000000 -1.000000
vn 0.000000 0.000000 -1.000000
vn 0.000000 0.000000 -1.000000
vn 0.000000 0.000000 -1.000000
vn 0.000000 0.000000 -1.000000
vn 0.000000 0.000000 -1.000000
vn 0.000000 0.000000 -1.000000
vn -0.000000 0.000000 -1.000000
vn 0.000000 0.000000 -1.000000
vn 0.000000 0.000000 -1.000000
vn 0.000000 0.000000 -1.000000
vn 0.000000 0.000000 -1.000000
vn 0.000000 0.000000 -1.000000
vn 0.000000 0.000000 -1.000000
vn -0.000001 0.000000 -1.000000
vn 0.000000 0.000000 -1.000000
vn 0.000000 0.000000 -1.000000
vn 0.000000 0.000000 -1.000000
vn 0.000001 0.000000 -1.000000
vn -0.000002 0.000000 -1.000000
vn 0.000000 0.000000 -1.000000
vn 0.000000 0.000000 -1.000000
vn 0.000000 0.000000 -1.000000
vn 0.000000 0.000000 -1.000000
vn 0.000000 0.000000 -1.000000
vn 0.000000 0.000000 -1.000000
vn 0.000000 0.000000 -1.000000
vn 0.000000 0.000000 -1.000000
vn 0.000000 0.000000 -1.000000
vn 0.000000 0.000000 -1.000000
vn 0.000000 0.000000 -1.000000
vn 0.000000 0.000000 -1.000000
vn 0.000000 0.000000 -1.000000
vn 0.000000 0.000000 -1.000000
vn 0.000000 0.000000 -1.000000
vn 0.000000 0.000000 -1.000000
vn 0.000000 0.000000 -1.000000
vn 0.000000 0.000000 -1.000000
vn 0.000000 0.000000 -1.000000
vn 0.000000 0.000000 -1.000000
vn 0.000000 0.000000 -1.000000
vn 0.000000 0.000000 -1.000000
vn 0.000000 0.000000 -1.000000
vn 0.000000 0.000000 -1.000000
vn 0.000000 0.000000 -1.000000
vn 0.000000 0.000000 -1.000000
vn 0.000000 0.000000 -1.000000
vn 0.000000 0.000000 -1.000000
vn -0.000000 0.000000 -1.000000
vn -0.000000 0.000000 -1.000000
vn 0.000001 0.000000 -1.000000
vn 0.000000 0.000000 -1.000000
vn 0.000000 0.000000 -1.000000
vn -0.000000 0.000000 -1.000000
vn -0.000001 0.000000 -1.000000
vn 0.000002 0.000000 -1.000000
vn 0.000000 0.000000 -1.000000
vn 0.000000 0.000000 -1.000000
vn 0.000000 0.000000 -1.000000
vn 0.000000 0.000000 -1.000000
s 1
usemtl table:initialShadingGroup
f 63/80/1 89/106/2 60/79/3
f 60/79/3 89/106/2 59/78/4
f 59/78/4 89/106/2 58/77/5
f 58/77/5 89/106/2 57/76/6
f 57/76/6 89/106/2 56/75/7
f 56/75/7 89/106/2 55/74/8
f 55/74/8 89/106/2 54/73/9
f 54/73/9 89/106/2 64/72/10
f 64/72/10 89/106/2 10/18/11
f 10/18/11 89/106/2 1/19/12
f 1/19/12 89/106/2 2/20/13
f 2/20/13 89/106/2 3/21/14
f 3/21/14 89/106/2 4/22/15
f 4/22/15 89/106/2 5/23/16
f 5/23/16 89/106/2 6/24/17
f 6/24/17 89/106/2 7/25/18
f 7/25/18 89/106/2 9/26/19
f 89/106/2 87/105/20 9/26/19
f 87/105/20 86/104/21 9/26/19
f 86/104/21 85/103/22 9/26/19
f 85/103/22 84/102/23 9/26/19
f 84/102/23 83/101/24 9/26/19
f 83/101/24 82/100/25 9/26/19
f 82/100/25 81/99/26 9/26/19
f 81/99/26 90/98/27 9/26/19
f 37/45/28 27/46/29 90/98/27
f 27/46/29 28/47/30 90/98/27
f 28/47/30 29/48/31 90/98/27
f 29/48/31 30/49/32 90/98/27
f 30/49/32 31/50/33 90/98/27
f 31/50/33 32/51/34 90/98/27
f 32/51/34 33/52/35 90/98/27
f 33/52/35 36/53/36 90/98/27
f 90/98/27 36/53/36 9/26/19
s 3
f 107/107/37 35/44/38 11/17/39
f 35/44/38 38/43/40 11/17/39
f 11/17/39 38/43/40 12/16/41
f 38/43/40 39/42/42 12/16/41
f 39/42/42 40/41/43 12/16/41
f 12/16/41 40/41/43 13/15/44
f 40/41/43 41/40/45 13/15/44
f 13/15/44 41/40/45 14/14/46
f 41/40/45 42/39/47 14/14/46
f 14/14/46 42/39/47 15/13/48
f 42/39/47 43/38/49 15/13/48
f 15/13/48 43/38/49 16/12/50
f 43/38/49 44/37/51 16/12/50
f 16/12/50 44/37/51 17/11/52
f 44/37/51 45/36/53 17/11/52
f 17/11/52 45/36/53 18/10/54
f 45/36/53 46/35/55 18/10/54
f 18/10/54 46/35/55 19/9/56
f 46/35/55 47/34/57 19/9/56
f 47/34/57 48/33/58 19/9/56
f 48/33/58 49/32/59 19/9/56
f 49/32/59 50/31/60 19/9/56
f 50/31/60 51/30/61 19/9/56
f 51/30/61 52/29/62 19/9/56
f 52/29/62 53/28/63 19/9/56
f 53/28/63 34/27/64 19/9/56
f 34/27/64 8/1/65 19/9/56
f 8/1/65 26/2/66 19/9/56
f 26/2/66 25/3/67 19/9/56
f 25/3/67 24/4/68 19/9/56
f 24/4/68 23/5/69 19/9/56
f 23/5/69 22/6/70 19/9/56
f 22/6/70 21/7/71 19/9/56
f 21/7/71 20/8/72 19/9/56
s 4
f 108/108/73 62/71/74 91/97/75
f 62/71/74 65/70/76 91/97/75
f 65/70/76 66/69/77 91/97/75
f 91/97/75 66/69/77 92/96/78
f 66/69/77 67/68/79 92/96/78
f 92/96/78 67/68/79 93/95/80
f 67/68/79 68/67/81 93/95/80
f 93/95/80 68/67/81 94/94/82
f 68/67/81 69/66/83 94/94/82
f 94/94/82 69/66/83 95/93/84
f 69/66/83 70/65/85 95/93/84
f 95/93/84 70/65/85 96/92/86
f 70/65/85 71/64/87 96/92/86
f 96/92/86 71/64/87 97/91/88
f 71/64/87 72/63/89 97/91/88
f 97/91/88 72/63/89 98/90/90
f 72/63/89 73/62/91 98/90/90
f 98/90/90 73/62/91 99/89/92
f 73/62/91 74/61/93 99/89/92
f 74/61/93 75/60/94 99/89/92
f 75/60/94 76/59/95 99/89/92
f 76/59/95 77/58/96 99/89/92
f 77/58/96 78/57/97 99/89/92
f 78/57/97 79/56/98 99/89/92
f 79/56/98 80/55/99 99/89/92
f 80/55/99 61/54/100 99/89/92
f 61/54/100 88/81/101 99/89/92
f 88/81/101 106/82/102 99/89/92
f 106/82/102 105/83/103 99/89/92
f 105/83/103 104/84/104 99/89/92
f 104/84/104 103/85/105 99/89/92
f 103/85/105 102/86/106 99/89/92
f 102/86/106 101/87/107 99/89/92
f 101/87/107 100/88/108 99/89/92
