# This file uses centimeters as units for non-parametric coordinates.

mtllib table_body.mtl
v -0.069292 -0.764403 0.050000
v -0.069292 0.764403 0.050000
v -0.069291 -0.764403 -0.050000
v -0.069291 0.764403 -0.050000
v 0.076903 -0.764403 0.050000
v 0.076903 0.764403 0.050000
v 0.076903 -0.764403 -0.050000
v 0.076903 0.764403 -0.050000
v 1.295470 -0.764403 -0.050000
v 1.371903 -0.687970 -0.050000
v 1.361663 -0.726186 -0.050000
v 1.333687 -0.754163 -0.050000
v 1.295470 -0.764403 0.050000
v 1.333687 -0.754163 0.050000
v 1.361663 -0.726186 0.050000
v 1.371903 -0.687970 0.050000
v 1.295470 0.764403 -0.050000
v 1.333687 0.754163 -0.050000
v 1.361663 0.726186 -0.050000
v 1.371903 0.687970 -0.050000
v 1.295470 0.764403 0.050000
v 1.371903 0.687970 0.050000
v 1.361663 0.726186 0.050000
v 1.333687 0.754163 0.050000
v -1.291665 -0.764403 0.050000
v -1.368097 -0.687970 0.050000
v -1.357857 -0.726186 0.050000
v -1.329881 -0.754163 0.050000
v -1.291665 -0.764403 -0.050000
v -1.329881 -0.754163 -0.050000
v -1.357857 -0.726186 -0.050000
v -1.368097 -0.687970 -0.050000
v -1.291665 0.764403 0.050000
v -1.329881 0.754163 0.050000
v -1.357857 0.726186 0.050000
v -1.368097 0.687970 0.050000
v -1.291665 0.764403 -0.050000
v -1.368097 0.687970 -0.050000
v -1.357857 0.726186 -0.050000
v -1.329881 0.754163 -0.050000
v -0.032747 -0.964441 0.050000
v -0.069292 -0.927896 0.050000
v 0.040358 -0.964441 0.050000
v 0.076903 -0.927896 0.050000
v 0.040358 0.964441 0.050000
v 0.076903 0.927896 0.050000
v -0.032747 0.964441 0.050000
v -0.069292 0.927896 0.050000
v -0.069291 0.764403 0.000694
v -0.069291 -0.764403 0.000694
v 0.076903 0.764403 0.000694
v 0.076903 -0.764403 0.000694
v 1.295470 -0.764403 0.000694
v 1.371903 -0.687970 0.000694
v 1.371903 0.687970 0.000694
v 1.295470 0.764403 0.000694
v -1.291665 -0.764403 0.000694
v -1.368097 -0.687970 0.000694
v -1.368097 0.687970 0.000694
v -1.291665 0.764403 0.000694
v 1.333687 -0.754163 0.000694
v 1.361663 -0.726186 0.000694
v 1.361663 0.726186 0.000694
v 1.333687 0.754163 0.000694
v -1.329881 -0.754163 0.000694
v -1.357857 -0.726186 0.000694
v -1.357857 0.726186 0.000694
v -1.329881 0.754163 0.000694
v -0.069291 -0.927896 0.000694
v -0.032747 -0.964441 0.000694
v 0.040358 -0.964441 0.000694
v 0.076903 -0.927896 0.000694
v 0.076903 0.927896 0.000694
v 0.040358 0.964441 0.000694
v -0.032747 0.964441 0.000694
v -0.069291 0.927896 0.000694
vt 0.375000 0.382662
vt 0.625000 0.867338
vt 0.625000 0.360050
vt 0.375000 0.889950
vt 0.625000 0.889950
vt 0.612501 1.000000
vt 0.375000 0.993505
vt 0.625000 0.256495
vt 0.375000 0.360050
vt 0.625000 0.382662
vt 0.375000 0.493095
vt 0.625000 0.756905
vt 0.375000 0.867338
vt 0.368505 0.250000
vt 0.387499 0.000000
vt 0.631495 0.000000
vt 0.131905 0.000000
vt 0.868095 0.250000
vt 0.368505 0.000000
vt 0.371752 0.000000
vt 0.371752 0.250000
vt 0.376675 -0.000000
vt 0.381249 0.250000
vt 0.376674 0.250000
vt 0.381249 0.000000
vt 0.387499 0.250000
vt 0.612501 0.000000
vt 0.618751 0.250000
vt 0.618751 0.000000
vt 0.623326 0.000000
vt 0.623326 0.250000
vt 0.628248 0.000000
vt 0.631495 0.250000
vt 0.628248 0.250000
vt 0.131905 0.250000
vt 0.128453 0.250000
vt 0.128453 0.000000
vt 0.376675 0.500000
vt 0.381249 0.750000
vt 0.376674 0.750000
vt 0.381249 0.500000
vt 0.387499 0.750000
vt 0.612501 0.500000
vt 0.618751 0.750000
vt 0.618751 0.500000
vt 0.623326 0.500000
vt 0.623326 0.750000
vt 0.871547 0.250000
vt 0.868095 0.000000
vt 0.871548 0.000000
vt 0.387499 1.000000
vt 0.381249 0.999130
vt 0.376674 0.996752
vt 0.375000 0.256495
vt 0.376675 0.253248
vt 0.381249 0.250870
vt 0.625000 0.993505
vt 0.623325 0.996752
vt 0.618751 0.999130
vt 0.612501 0.250000
vt 0.618751 0.250870
vt 0.623326 0.253248
vt 0.387499 0.500000
vt 0.381249 0.499075
vt 0.376675 0.496547
vt 0.375000 0.756905
vt 0.376675 0.753453
vt 0.381249 0.750925
vt 0.625000 0.493095
vt 0.623326 0.496547
vt 0.618751 0.499075
vt 0.612501 0.750000
vt 0.618751 0.750925
vt 0.623325 0.753453
vt 0.264950 0.000000
vt 0.242338 0.250000
vt 0.757662 0.000000
vt 0.735050 0.250000
vt 0.242338 0.000000
vt 0.247990 0.250000
vt 0.264950 0.250000
vt 0.264950 0.250000
vt 0.735050 0.000000
vt 0.740703 0.250000
vt 0.757662 0.250000
vt 0.757662 0.250000
vt 0.242338 0.250000
vt 0.259297 0.250000
vt 0.735050 0.250000
vt 0.752010 0.250000
vt 0.757662 0.126736
vt 0.242338 0.126736
vt 0.735050 0.126736
vt 0.264950 0.126736
vt 0.368505 0.126736
vt 0.387499 0.126736
vt 0.612501 0.126736
vt 0.631495 0.126736
vt 0.131905 0.126736
vt 0.387499 0.623264
vt 0.612501 0.623264
vt 0.868095 0.126736
vt 0.371752 0.126736
vt 0.376675 0.126736
vt 0.381249 0.126736
vt 0.618751 0.126736
vt 0.623326 0.126736
vt 0.628248 0.126736
vt 0.128453 0.126736
vt 0.376674 0.623264
vt 0.381249 0.623264
vt 0.618751 0.623264
vt 0.623325 0.623264
vt 0.871547 0.126736
vt 0.242338 0.126736
vt 0.247990 0.126736
vt 0.259297 0.126736
vt 0.264950 0.126736
vt 0.735050 0.126736
vt 0.740703 0.126736
vt 0.752010 0.126736
vt 0.757662 0.126736
vt 0.182689 0.730831
vt 1.000000 0.730831
vt 1.000000 0.000000
vt 0.182689 0.000000
vt 0.000000 0.182689
vt 0.000000 0.548141
vt 0.000001 0.000000
vt 0.346761 0.000000
vt 0.346760 1.000000
vt 0.000000 1.000000
vt 0.000000 0.730831
vt 0.817311 0.730831
vt 1.000000 0.548141
vt 1.000000 0.182689
vt 0.817311 0.000000
vt 0.000000 0.000000
vt 0.000000 0.000000
vt 0.346760 0.000000
vt 0.346761 1.000000
vt 0.000001 1.000000
vn 1.000000 -0.000000 0.000000
vn 1.000000 -0.000000 0.000000
vn 1.000000 -0.000000 0.000000
vn 1.000000 -0.000000 0.000000
vn -1.000000 -0.000000 -0.000000
vn -1.000000 -0.000000 -0.000000
vn -1.000000 -0.000000 -0.000000
vn -1.000000 -0.000000 -0.000000
vn -0.000000 1.000000 -0.000003
vn -0.000000 1.000000 -0.000003
vn -0.000000 1.000000 -0.000003
vn -0.000000 1.000000 -0.000003
vn -0.000000 -1.000000 -0.000002
vn -0.000000 -1.000000 -0.000002
vn -0.000000 -1.000000 -0.000002
vn -0.000000 -1.000000 -0.000002
vn 0.000000 -0.000000 1.000000
vn 0.000000 -0.000000 1.000000
vn 0.000000 -0.000000 1.000000
vn 0.000000 -0.000000 1.000000
vn 0.000000 -0.000000 1.000000
vn 0.000000 -0.000000 1.000000
vn 0.000000 -0.000000 -1.000000
vn 0.000000 -0.000000 -1.000000
vn 0.000000 -0.000000 -1.000000
vn 0.000000 -0.000000 -1.000000
vn 0.000000 1.000000 -0.000004
vn 0.000000 1.000000 -0.000004
vn 0.000000 1.000000 -0.000004
vn 0.000000 1.000000 -0.000004
vn -0.000000 -1.000000 -0.000002
vn -0.000000 -1.000000 -0.000002
vn -0.000000 -1.000000 -0.000002
vn -0.000000 -1.000000 -0.000002
vn -0.000000 0.000000 1.000000
vn -0.000000 0.000000 1.000000
vn -0.000000 0.000000 1.000000
vn -0.000000 0.000000 1.000000
vn 0.000000 1.000000 -0.000002
vn 0.000000 1.000000 -0.000002
vn 0.000000 1.000000 -0.000002
vn 0.000000 1.000000 -0.000002
vn -0.000000 0.000000 -1.000000
vn -0.000000 0.000000 -1.000000
vn -0.000000 0.000000 -1.000000
vn -0.000000 0.000000 -1.000000
vn -0.000000 0.000000 -1.000000
vn -0.000000 0.000000 -1.000000
vn -0.000000 -1.000000 -0.000000
vn -0.000000 -1.000000 -0.000000
vn -0.000000 -1.000000 -0.000000
vn -0.000000 -1.000000 -0.000000
vn -0.000000 0.000000 1.000000
vn -0.000000 0.000000 1.000000
vn -0.000000 0.000000 1.000000
vn -0.000000 0.000000 1.000000
vn -0.000000 0.000000 1.000000
vn -0.000000 0.000000 1.000000
vn 0.000000 -0.000000 -1.000000
vn 0.000000 -0.000000 -1.000000
vn 0.000000 -0.000000 -1.000000
vn 0.000000 -0.000000 -1.000000
vn 0.000000 -0.000000 -1.000000
vn 0.000000 -0.000000 -1.000000
vn 0.258818 -0.965926 0.000000
vn 0.258818 -0.965926 0.000000
vn 0.258818 -0.965926 0.000000
vn 0.258818 -0.965926 0.000000
vn 0.707109 -0.707105 0.000000
vn 0.707109 -0.707105 0.000000
vn 0.707109 -0.707105 0.000000
vn 0.707109 -0.707105 0.000000
vn 0.965926 -0.258819 0.000000
vn 0.965926 -0.258819 0.000000
vn 0.965926 -0.258819 0.000000
vn 0.965926 -0.258819 0.000000
vn 0.965926 0.258819 0.000000
vn 0.965926 0.258819 0.000000
vn 0.965926 0.258819 0.000000
vn 0.965926 0.258819 0.000000
vn 0.707109 0.707105 0.000000
vn 0.707109 0.707105 0.000000
vn 0.707109 0.707105 0.000000
vn 0.707109 0.707105 0.000000
vn 0.258818 0.965926 0.000000
vn 0.258818 0.965926 0.000000
vn 0.258818 0.965926 0.000000
vn 0.258818 0.965926 0.000000
vn -0.258820 -0.965926 -0.000000
vn -0.258820 -0.965926 -0.000000
vn -0.258820 -0.965926 -0.000000
vn -0.258820 -0.965926 -0.000000
vn -0.707107 -0.707107 -0.000000
vn -0.707107 -0.707107 -0.000000
vn -0.707107 -0.707107 -0.000000
vn -0.707107 -0.707107 -0.000000
vn -0.965926 -0.258817 -0.000000
vn -0.965926 -0.258817 -0.000000
vn -0.965926 -0.258817 -0.000000
vn -0.965926 -0.258817 -0.000000
vn -0.965927 0.258814 -0.000000
vn -0.965927 0.258814 -0.000000
vn -0.965927 0.258814 -0.000000
vn -0.965927 0.258814 -0.000000
vn -0.707107 0.707107 -0.000000
vn -0.707107 0.707107 -0.000000
vn -0.707107 0.707107 -0.000000
vn -0.707107 0.707107 -0.000000
vn -0.258820 0.965926 -0.000000
vn -0.258820 0.965926 -0.000000
vn -0.258820 0.965926 -0.000000
vn -0.258820 0.965926 -0.000000
vn 0.000000 -0.000000 -1.000000
vn 0.000000 -0.000000 -1.000000
vn 0.000000 -0.000000 -1.000000
vn 0.000000 -0.000000 -1.000000
vn -0.000000 0.000000 1.000000
vn -0.000000 0.000000 1.000000
vn -0.000000 0.000000 1.000000
vn -0.000000 0.000000 1.000000
vn 0.000000 -0.000000 -1.000000
vn 0.000000 -0.000000 -1.000000
vn 0.000000 -0.000000 -1.000000
vn 0.000000 -0.000000 -1.000000
vn -0.000000 0.000000 1.000000
vn -0.000000 0.000000 1.000000
vn -0.000000 0.000000 1.000000
vn -0.000000 0.000000 1.000000
vn -0.000000 0.000000 1.000000
vn -0.000000 0.000000 1.000000
vn -0.000000 0.000000 1.000000
vn -0.000000 0.000000 1.000000
vn 0.000000 -0.000000 -1.000000
vn 0.000000 -0.000000 -1.000000
vn 0.000000 -0.000000 -1.000000
vn 0.000000 -0.000000 -1.000000
vn -0.000000 0.000000 1.000000
vn -0.000000 0.000000 1.000000
vn -0.000000 0.000000 1.000000
vn -0.000000 0.000000 1.000000
vn -0.000000 0.000000 -1.000000
vn -0.000000 0.000000 -1.000000
vn -0.000000 0.000000 -1.000000
vn -0.000000 0.000000 -1.000000
vn -1.000000 0.000000 -0.000002
vn -1.000000 0.000000 -0.000002
vn -1.000000 0.000000 -0.000002
vn -1.000000 0.000000 -0.000002
vn -0.000000 0.000000 1.000000
vn -0.000000 0.000000 1.000000
vn -0.000000 0.000000 1.000000
vn -0.000000 0.000000 1.000000
vn -0.000000 0.000000 1.000000
vn -0.000000 0.000000 1.000000
vn 1.000000 -0.000000 0.000000
vn 1.000000 -0.000000 0.000000
vn 1.000000 -0.000000 0.000000
vn 1.000000 -0.000000 0.000000
vn -0.000000 0.000001 1.000000
vn -0.000000 0.000001 1.000000
vn -0.000000 0.000001 1.000000
vn -0.000000 0.000001 1.000000
vn -0.000000 0.000001 1.000000
vn -0.000000 0.000001 1.000000
vn 1.000000 -0.000000 0.000000
vn 1.000000 -0.000000 0.000000
vn 1.000000 -0.000000 0.000000
vn 1.000000 -0.000000 0.000000
vn -1.000000 0.000000 -0.000000
vn -1.000000 0.000000 -0.000000
vn -1.000000 0.000000 -0.000000
vn -1.000000 0.000000 -0.000000
vn -0.000000 1.000000 0.000001
vn -0.000000 1.000000 0.000001
vn -0.000000 1.000000 0.000001
vn -0.000000 1.000000 0.000001
vn -0.000000 -1.000000 0.000001
vn -0.000000 -1.000000 0.000001
vn -0.000000 -1.000000 0.000001
vn -0.000000 -1.000000 0.000001
vn 0.000000 1.000000 0.000001
vn 0.000000 1.000000 0.000001
vn 0.000000 1.000000 0.000001
vn 0.000000 1.000000 0.000001
vn -0.000000 -1.000000 -0.000000
vn -0.000000 -1.000000 -0.000000
vn -0.000000 -1.000000 -0.000000
vn -0.000000 -1.000000 -0.000000
vn 0.258818 -0.965926 0.000000
vn 0.258818 -0.965926 0.000000
vn 0.258818 -0.965926 0.000000
vn 0.258818 -0.965926 0.000000
vn 0.707109 -0.707105 0.000000
vn 0.707109 -0.707105 0.000000
vn 0.707109 -0.707105 0.000000
vn 0.707109 -0.707105 0.000000
vn 0.965926 -0.258817 0.000000
vn 0.965926 -0.258817 0.000000
vn 0.965926 -0.258817 0.000000
vn 0.965926 -0.258817 0.000000
vn 0.965926 0.258817 0.000000
vn 0.965926 0.258817 0.000000
vn 0.965926 0.258817 0.000000
vn 0.965926 0.258817 0.000000
vn 0.707109 0.707105 0.000000
vn 0.707109 0.707105 0.000000
vn 0.707109 0.707105 0.000000
vn 0.707109 0.707105 0.000000
vn 0.258817 0.965926 0.000000
vn 0.258817 0.965926 0.000000
vn 0.258817 0.965926 0.000000
vn 0.258817 0.965926 0.000000
vn -0.258819 -0.965926 -0.000000
vn -0.258819 -0.965926 -0.000000
vn -0.258819 -0.965926 -0.000000
vn -0.258819 -0.965926 -0.000000
vn -0.707108 -0.707105 -0.000000
vn -0.707108 -0.707105 -0.000000
vn -0.707108 -0.707105 -0.000000
vn -0.707108 -0.707105 -0.000000
vn -0.965928 -0.258812 -0.000000
vn -0.965928 -0.258812 -0.000000
vn -0.965928 -0.258812 -0.000000
vn -0.965928 -0.258812 -0.000000
vn -0.965927 0.258816 -0.000000
vn -0.965927 0.258816 -0.000000
vn -0.965927 0.258816 -0.000000
vn -0.965927 0.258816 -0.000000
vn -0.707109 0.707105 -0.000000
vn -0.707109 0.707105 -0.000000
vn -0.707109 0.707105 -0.000000
vn -0.707109 0.707105 -0.000000
vn -0.258818 0.965926 -0.000000
vn -0.258818 0.965926 -0.000000
vn -0.258818 0.965926 -0.000000
vn -0.258818 0.965926 -0.000000
vn 1.000000 -0.000000 0.000000
vn 1.000000 -0.000000 0.000000
vn 1.000000 -0.000000 0.000000
vn 1.000000 -0.000000 0.000000
vn -1.000000 -0.000000 -0.000002
vn -1.000000 -0.000000 -0.000002
vn -1.000000 -0.000000 -0.000002
vn -1.000000 -0.000000 -0.000002
vn -0.707107 -0.707107 -0.000002
vn -0.707107 -0.707107 -0.000002
vn -0.707107 -0.707107 -0.000002
vn -0.707107 -0.707107 -0.000002
vn 0.707107 -0.707107 0.000000
vn 0.707107 -0.707107 0.000000
vn 0.707107 -0.707107 0.000000
vn 0.707107 -0.707107 0.000000
vn 0.707107 0.707107 -0.000001
vn 0.707107 0.707107 -0.000001
vn 0.707107 0.707107 -0.000001
vn 0.707107 0.707107 -0.000001
vn -0.707107 0.707107 -0.000003
vn -0.707107 0.707107 -0.000003
vn -0.707107 0.707107 -0.000003
vn -0.707107 0.707107 -0.000003
vn 0.000000 0.000000 -1.000000
vn 0.000000 0.000000 -1.000000
vn 0.000000 0.000000 -1.000000
vn 0.000000 0.000000 -1.000000
vn 0.000000 0.000000 -1.000000
vn 0.000000 0.000000 -1.000000
vn 0.000000 1.000000 0.000000
vn 0.000000 1.000000 0.000000
vn 0.000000 1.000000 0.000000
vn 0.000000 1.000000 0.000000
vn 0.000000 -0.000000 -1.000000
vn 0.000000 -0.000000 -1.000000
vn 0.000000 -0.000000 -1.000000
vn 0.000000 -0.000000 -1.000000
vn 0.000000 -0.000000 -1.000000
vn 0.000000 -0.000000 -1.000000
vn -0.000000 -1.000000 -0.000000
vn -0.000000 -1.000000 -0.000000
vn -0.000000 -1.000000 -0.000000
vn -0.000000 -1.000000 -0.000000
s off
usemtl initialShadingGroup
f 16/26/1 54/96/2 55/97/3 22/60/4
f 32/42/5 58/100/6 59/101/7 38/72/8
f 21/33/9 56/98/10 51/93/11 6/78/12
f 25/35/13 57/99/14 50/92/15 1/76/16
f 1/1/17 2/10/18 33/69/19 36/43/20 26/63/21 25/11/22
f 3/13/23 4/2/24 8/5/25 7/4/26
f 2/85/27 49/91/28 60/102/29 33/18/30
f 41/80/31 70/116/32 71/117/33 43/88/34
f 5/9/35 6/3/36 2/10/37 1/1/38
f 45/84/39 74/120/40 75/121/41 47/90/42
f 7/4/43 8/5/44 17/57/45 20/6/46 10/51/47 9/7/48
f 5/81/49 52/94/50 53/95/51 13/14/52
f 13/54/53 16/26/54 22/60/55 21/8/56 6/3/57 5/9/58
f 29/66/59 32/42/60 38/72/61 37/12/62 4/2/63 3/13/64
f 9/19/65 12/20/66 61/103/67 53/95/68
f 12/22/69 11/25/70 62/105/71 61/104/72
f 11/25/73 10/15/74 54/96/75 62/105/76
f 20/27/77 19/29/78 63/106/79 55/97/80
f 19/29/81 18/30/82 64/107/83 63/106/84
f 18/32/85 17/16/86 56/98/87 64/108/88
f 25/35/89 28/36/90 65/109/91 57/99/92
f 28/38/93 27/41/94 66/111/95 65/110/96
f 27/41/97 26/63/98 58/100/99 66/111/100
f 36/43/101 35/45/102 67/112/103 59/101/104
f 35/45/105 34/46/106 68/113/107 67/112/108
f 34/48/109 33/18/110 60/102/111 68/114/112
f 9/7/113 10/51/114 11/52/115 12/53/116
f 13/54/117 14/55/118 15/56/119 16/26/120
f 17/57/121 18/58/122 19/59/123 20/6/124
f 21/8/125 22/60/126 23/61/127 24/62/128
f 25/11/129 26/63/130 27/64/131 28/65/132
f 29/66/133 30/67/134 31/68/135 32/42/136
f 33/69/137 34/70/138 35/71/139 36/43/140
f 37/12/141 38/72/142 39/73/143 40/74/144
f 1/76/145 50/92/146 69/115/147 42/87/148
f 5/81/149 1/76/150 42/87/151 41/80/152 43/88/153 44/82/154
f 6/78/155 51/93/156 73/119/157 46/89/158
f 2/85/159 6/78/160 46/89/161 45/84/162 47/90/163 48/86/164
f 55/97/165 54/96/166 10/15/167 20/27/168
f 59/101/169 58/100/170 26/63/171 36/43/172
f 51/93/173 56/98/174 17/16/175 8/83/176
f 50/92/177 57/99/178 29/17/179 3/79/180
f 60/102/181 49/91/182 4/77/183 37/49/184
f 53/95/185 52/94/186 7/75/187 9/19/188
f 53/95/189 61/103/190 14/21/191 13/14/192
f 61/104/193 62/105/194 15/23/195 14/24/196
f 62/105/197 54/96/198 16/26/199 15/23/200
f 55/97/201 63/106/202 23/28/203 22/60/204
f 63/106/205 64/107/206 24/31/207 23/28/208
f 64/108/209 56/98/210 21/33/211 24/34/212
f 57/99/213 65/109/214 30/37/215 29/17/216
f 65/110/217 66/111/218 31/39/219 30/40/220
f 66/111/221 58/100/222 32/42/223 31/39/224
f 59/101/225 67/112/226 39/44/227 38/72/228
f 67/112/229 68/113/230 40/47/231 39/44/232
f 68/114/233 60/102/234 37/49/235 40/50/236
f 72/118/237 52/94/238 5/81/239 44/82/240
f 76/122/241 49/91/242 2/85/243 48/86/244
f 69/115/245 70/116/246 41/80/247 42/87/248
f 71/117/249 72/118/250 44/82/251 43/88/252
f 73/119/253 74/120/254 45/84/255 46/89/256
f 75/121/257 76/122/258 48/86/259 47/90/260
f 73/123/261 51/124/262 49/125/263 76/126/264 75/127/265 74/128/266
f 51/129/267 8/130/268 4/131/269 49/132/270
f 52/133/271 72/134/272 71/135/273 70/136/274 69/137/275 50/138/276
f 50/139/277 3/140/278 7/141/279 52/142/280
